<svg xmlns="http://www.w3.org/2000/svg" viewBox="0 0 64 64" role="img">
  <rect width="64" height="64" rx="18" fill="#111"/>
  <path fill="#25f4ee" d="M34.2 12h8.1c.6 4.9 3.3 8.6 8.4 10.2v8.1c-3.1-.1-5.9-.9-8.4-2.4v12.8c0 8.1-5.8 13.3-13.7 13.3-7.3 0-13.3-4.8-13.3-12.3 0-8.1 6.2-12.9 14.8-12.2v8.2c-3.9-.6-6.3.9-6.3 3.8 0 2.5 2 4.1 4.6 4.1 3 0 5.1-1.6 5.1-5.5V12h.7z"/>
  <path fill="#fe2c55" d="M37.7 12h4.6c.6 4.9 3.3 8.6 8.4 10.2v8.1c-3.1-.1-5.9-.9-8.4-2.4v12.8c0 8.1-5.8 13.3-13.7 13.3-4.3 0-8.2-1.7-10.7-4.6 2.4 1.6 5.2 2.4 8.1 2.4 7.9 0 13.7-5.2 13.7-13.3V25.7c2.5 1.5 5.3 2.3 8.4 2.4v-2.5c-5.1-1.6-9.8-8.7-10.4-13.6z"/>
  <path fill="#fff" d="M34.2 12h4.6c.6 4.9 3.3 8.6 8.4 10.2v5.6c-3.1-.1-5.9-.9-8.4-2.4v12.8c0 8.1-5.8 13.3-13.7 13.3-3.7 0-7.1-1.2-9.5-3.4-1.5-1.9-2.3-4.1-2.3-6.6 0-8.1 6.2-12.9 14.8-12.2v5.7c-3.9-.6-6.3.9-6.3 3.8 0 2.5 2 4.1 4.6 4.1 3 0 5.1-1.6 5.1-5.5V12h2.7z"/>
</svg>
